solid 
 facet normal -1.000000e+00  0.000000e+00  0.000000e+00
   outer loop
     vertex  7.000000e+04  4.500000e+04  2.000000e+03
     vertex  7.000000e+04  5.500000e+04 -1.000000e+02
     vertex  7.000000e+04  4.500000e+04 -1.000000e+02
   endloop
 endfacet
 facet normal -1.000000e+00  0.000000e+00  0.000000e+00
   outer loop
     vertex  7.000000e+04  4.500000e+04  2.000000e+03
     vertex  7.000000e+04  5.500000e+04  2.000000e+03
     vertex  7.000000e+04  5.500000e+04 -1.000000e+02
   endloop
 endfacet
 facet normal  1.000000e+00  0.000000e+00  0.000000e+00
   outer loop
     vertex  8.000000e+04  4.500000e+04  2.000000e+03
     vertex  8.000000e+04  4.500000e+04 -1.000000e+02
     vertex  8.000000e+04  5.500000e+04 -1.000000e+02
   endloop
 endfacet
 facet normal  1.000000e+00 -0.000000e+00  0.000000e+00
   outer loop
     vertex  8.000000e+04  4.500000e+04  2.000000e+03
     vertex  8.000000e+04  5.500000e+04 -1.000000e+02
     vertex  8.000000e+04  5.500000e+04  2.000000e+03
   endloop
 endfacet
 facet normal  0.000000e+00 -1.000000e+00 -0.000000e+00
   outer loop
     vertex  8.000000e+04  4.500000e+04  2.000000e+03
     vertex  7.000000e+04  4.500000e+04 -1.000000e+02
     vertex  8.000000e+04  4.500000e+04 -1.000000e+02
   endloop
 endfacet
 facet normal -0.000000e+00 -1.000000e+00  0.000000e+00
   outer loop
     vertex  8.000000e+04  4.500000e+04  2.000000e+03
     vertex  7.000000e+04  4.500000e+04  2.000000e+03
     vertex  7.000000e+04  4.500000e+04 -1.000000e+02
   endloop
 endfacet
 facet normal  0.000000e+00  1.000000e+00  0.000000e+00
   outer loop
     vertex  8.000000e+04  5.500000e+04  2.000000e+03
     vertex  8.000000e+04  5.500000e+04 -1.000000e+02
     vertex  7.000000e+04  5.500000e+04 -1.000000e+02
   endloop
 endfacet
 facet normal  0.000000e+00  1.000000e+00  0.000000e+00
   outer loop
     vertex  8.000000e+04  5.500000e+04  2.000000e+03
     vertex  7.000000e+04  5.500000e+04 -1.000000e+02
     vertex  7.000000e+04  5.500000e+04  2.000000e+03
   endloop
 endfacet
 facet normal -0.000000e+00  0.000000e+00 -1.000000e+00
   outer loop
     vertex  8.000000e+04  5.500000e+04 -1.000000e+02
     vertex  7.000000e+04  4.500000e+04 -1.000000e+02
     vertex  7.000000e+04  5.500000e+04 -1.000000e+02
   endloop
 endfacet
 facet normal  0.000000e+00 -0.000000e+00 -1.000000e+00
   outer loop
     vertex  8.000000e+04  5.500000e+04 -1.000000e+02
     vertex  8.000000e+04  4.500000e+04 -1.000000e+02
     vertex  7.000000e+04  4.500000e+04 -1.000000e+02
   endloop
 endfacet
 facet normal  0.000000e+00  0.000000e+00  1.000000e+00
   outer loop
     vertex  8.000000e+04  5.500000e+04  2.000000e+03
     vertex  7.000000e+04  5.500000e+04  2.000000e+03
     vertex  7.000000e+04  4.500000e+04  2.000000e+03
   endloop
 endfacet
 facet normal  0.000000e+00  0.000000e+00  1.000000e+00
   outer loop
     vertex  8.000000e+04  5.500000e+04  2.000000e+03
     vertex  7.000000e+04  4.500000e+04  2.000000e+03
     vertex  8.000000e+04  4.500000e+04  2.000000e+03
   endloop
 endfacet
endsolid
